<svg id="g1" xmlns="http://www.w3.org/2000/svg" xmlns:xlink="http://www.w3.org/1999/xlink" width="312" height="63" viewBox="0 0 312 63">
  <defs>
    <style>
      .cls-1 {
        fill: #afafaf;
      }

      .cls-2 {
        fill: #ededed;
      }

      .cls-3 {
        fill: #050003;
        filter: url(#filter);
      }

      .cls-3, .cls-4, .cls-6 {
        fill-rule: evenodd;
      }

      .cls-4 {
        fill: #4d4d4d;
      }

      .cls-5 {
        fill: #fff;
      }

      .cls-6 {
        fill: #f7931a;
      }
    </style>
    <filter id="filter" x="83.781" y="127.281" width="119.844" height="17.719" filterUnits="userSpaceOnUse">
      <feOffset result="offset" dy="2" in="SourceAlpha"/>
      <feGaussianBlur result="blur"/>
      <feFlood result="flood" flood-color="#fff"/>
      <feComposite result="composite" operator="in" in2="blur"/>
      <feBlend result="blend" in="SourceGraphic"/>
    </filter>
  </defs>
  <rect id="圆角矩形_1" data-name="圆角矩形 1" class="cls-1" y="3" width="312" height="60" rx="30" ry="30"/>
  <rect id="圆角矩形_1_拷贝" data-name="圆角矩形 1 拷贝" class="cls-2" width="312" height="60" rx="30" ry="30"/>
  <path id="Donate_with" data-name="Donate with" class="cls-3" d="M94.711,131.349a5.848,5.848,0,0,0-2.56-2.36,8.833,8.833,0,0,0-3.89-.8h-4.48v14.28h4.04a8.347,8.347,0,0,0,5.74-1.83,6.912,6.912,0,0,0,2.06-5.45A7.511,7.511,0,0,0,94.711,131.349Zm-6.61,8.62H86.8v-9.3h1.62a3.918,3.918,0,0,1,3.02,1.12,4.983,4.983,0,0,1,1.04,3.48q0,4.7-4.38,4.7h0Zm19.48-6.04a4.693,4.693,0,0,0-1.86-1.92,5.478,5.478,0,0,0-2.72-.66,5.189,5.189,0,0,0-3.9,1.46,5.751,5.751,0,0,0-1.42,4.18,6.472,6.472,0,0,0,.68,3.09,4.661,4.661,0,0,0,1.87,1.93,5.493,5.493,0,0,0,2.71.66,5.155,5.155,0,0,0,3.89-1.48,5.8,5.8,0,0,0,1.43-4.2A6.37,6.37,0,0,0,107.58,133.929Zm-6.33.63a1.891,1.891,0,0,1,1.71-.81,1.912,1.912,0,0,1,1.73.81,4.489,4.489,0,0,1,.53,2.43,4.6,4.6,0,0,1-.53,2.45,1.877,1.877,0,0,1-1.71.83,1.9,1.9,0,0,1-1.73-.83,4.6,4.6,0,0,1-.53-2.45A4.489,4.489,0,0,1,101.25,134.559Zm13.74-2.83a3,3,0,0,0-1.43,1.22H113.4l-0.4-1.4h-2.28v10.92h2.98v-5.14a5.75,5.75,0,0,1,.5-2.67,1.918,1.918,0,0,1,1.86-.93,1.532,1.532,0,0,1,1.34.59,3.054,3.054,0,0,1,.42,1.77v6.38h2.98v-7.12a3.907,3.907,0,0,0-1.06-3.05,4.07,4.07,0,0,0-2.82-.95A4.965,4.965,0,0,0,114.99,131.729Zm11.11-.13a9.1,9.1,0,0,0-1.94.71l0.98,2.02a12.689,12.689,0,0,1,1.52-.57,5.371,5.371,0,0,1,1.56-.23,1.815,1.815,0,0,1,1.25.4,1.6,1.6,0,0,1,.45,1.26v0.48l-1.9.06a7.151,7.151,0,0,0-3.66.92,2.867,2.867,0,0,0-1.22,2.56,3.3,3.3,0,0,0,.96,2.62,3.542,3.542,0,0,0,2.42.84,4.752,4.752,0,0,0,2.14-.4,4.645,4.645,0,0,0,1.48-1.28h0.08l0.58,1.48h2.08v-7.28a3.526,3.526,0,0,0-1.17-2.91,5.232,5.232,0,0,0-3.37-.95A9.2,9.2,0,0,0,126.1,131.6Zm3.82,6.71a2.013,2.013,0,0,1-.66,1.61,2.392,2.392,0,0,1-1.62.57,1.732,1.732,0,0,1-1.04-.29,1.116,1.116,0,0,1-.4-0.97,1.58,1.58,0,0,1,.56-1.26,3.28,3.28,0,0,1,2-.52l1.16-.04v0.9Zm9.68,1.67a1.161,1.161,0,0,1-.36-0.93v-5.26h3.06v-2.24h-3.06v-2.32h-1.9l-0.86,2.3-1.64,1v1.26h1.42v5.26a4.439,4.439,0,0,0,.45,2.2,2.491,2.491,0,0,0,1.22,1.1,4.528,4.528,0,0,0,1.75.32,8.052,8.052,0,0,0,1.55-.14,5.352,5.352,0,0,0,1.19-.36v-2.22a6.726,6.726,0,0,1-.92.25,5,5,0,0,1-.96.09A1.387,1.387,0,0,1,139.6,139.979Zm6.82-7.99a4.395,4.395,0,0,0-1.81,1.92,6.97,6.97,0,0,0-.65,3.18,6.126,6.126,0,0,0,.72,3.13,4.55,4.55,0,0,0,1.98,1.84,6.571,6.571,0,0,0,2.9.61,10.359,10.359,0,0,0,2.14-.19,7.469,7.469,0,0,0,1.7-.59v-2.3a9.159,9.159,0,0,1-1.79.65,8.14,8.14,0,0,1-1.91.21,2.641,2.641,0,0,1-1.97-.72,2.827,2.827,0,0,1-.75-1.98h7.04v-1.44a4.524,4.524,0,0,0-4.9-4.96A5.494,5.494,0,0,0,146.42,131.989Zm4.27,2.14a2.7,2.7,0,0,1,.53,1.64h-4.18a2.705,2.705,0,0,1,.66-1.74,1.949,1.949,0,0,1,1.44-.56A1.837,1.837,0,0,1,150.69,134.129Zm23.169,8.34,3.14-10.92h-2.92l-1.3,4.84q-0.139.52-.27,1.23t-0.23,1.36c-0.067.433-.113,0.763-0.14,0.99h-0.08c-0.013-.253-0.047-0.593-0.1-1.02s-0.12-.847-0.2-1.26-0.14-.713-0.18-0.9l-1.28-5.24h-3.28l-1.34,5.24c-0.027.107-.063,0.293-0.11,0.56s-0.1.567-.16,0.9-0.11.657-.15,0.97-0.067.563-.08,0.75H165.1c-0.04-.253-0.09-0.6-0.15-1.03s-0.127-.88-0.2-1.34a11.945,11.945,0,0,0-.25-1.21l-1.26-4.84h-2.96l3.1,10.92h3.2l0.88-3.78q0.079-.36.24-1.04t0.34-1.45q0.18-.769.33-1.42t0.21-.95h0.08q0.06,0.3.22,0.95t0.34,1.42q0.18,0.769.33,1.44t0.23,1.01l0.84,3.82h3.24Zm5.25-14.89a1.63,1.63,0,0,0,0,2.29,2.208,2.208,0,0,0,2.29,0,1.606,1.606,0,0,0,0-2.29A2.27,2.27,0,0,0,179.109,127.579Zm-0.35,3.97v10.92h2.98v-10.92h-2.98Zm9.76,8.43a1.161,1.161,0,0,1-.36-0.93v-5.26h3.06v-2.24h-3.06v-2.32h-1.9l-0.86,2.3-1.64,1v1.26h1.42v5.26a4.439,4.439,0,0,0,.45,2.2,2.491,2.491,0,0,0,1.22,1.1,4.528,4.528,0,0,0,1.75.32,8.052,8.052,0,0,0,1.55-.14,5.352,5.352,0,0,0,1.19-.36v-2.22a6.726,6.726,0,0,1-.92.25,5,5,0,0,1-.96.09A1.387,1.387,0,0,1,188.519,139.979Zm5.02-12.71v15.2h2.98v-5.14a5.649,5.649,0,0,1,.51-2.67,1.922,1.922,0,0,1,1.85-.93q1.76,0,1.76,2.36v6.38h2.98v-7.12a3.866,3.866,0,0,0-1.08-3.05,4.145,4.145,0,0,0-2.84-.95,4.278,4.278,0,0,0-1.82.38,3.087,3.087,0,0,0-1.34,1.22h-0.16q0.039-.3.09-1.03t0.05-1.55v-3.1h-2.98Z" transform="translate(-62 -105)"/>
  <path id="形状_1_拷贝_7" data-name="形状 1 拷贝 7" class="cls-4" d="M254.842,130.078a6.6,6.6,0,0,1,3.065.653,5.981,5.981,0,0,1,2.14,1.751,7.087,7.087,0,0,1,1.244,2.582,12.4,12.4,0,0,1,.405,3.176,13.263,13.263,0,0,1-3.528,9.023,12.377,12.377,0,0,1-3.847,2.731,11.331,11.331,0,0,1-4.8,1.009c-0.232,0-.607,0-1.157-0.03a16.61,16.61,0,0,1-1.909-.178c-0.751-.118-1.532-0.267-2.284-0.445a12.43,12.43,0,0,1-2.285-.831l6.391-27.6,5.784-.92-2.284,9.794a12.732,12.732,0,0,1,1.474-.534,7.055,7.055,0,0,1,1.591-.178h0Zm-4.8,16.236a4.676,4.676,0,0,0,2.43-.653,6.637,6.637,0,0,0,2-1.722,9.049,9.049,0,0,0,1.793-5.313,5.944,5.944,0,0,0-.578-2.849,2.318,2.318,0,0,0-2.169-1.039,7.024,7.024,0,0,0-1.36.178,3.254,3.254,0,0,0-1.5.8l-2.43,10.389a3.378,3.378,0,0,1,.376.089c0.116,0.029.232,0.029,0.347,0.059,0.116,0,.261.03,0.434,0.03l0.665,0.03h0Zm17.612,4.155h-5.466l4.627-19.975h5.524Zm2.661-22.409a3.35,3.35,0,0,1-2.083-.713,2.554,2.554,0,0,1-.925-2.137,3.594,3.594,0,0,1,.318-1.484,4.354,4.354,0,0,1,.839-1.217,3.891,3.891,0,0,1,1.214-.831,3.562,3.562,0,0,1,1.475-.3,3.4,3.4,0,0,1,2.082.712,2.553,2.553,0,0,1,.926,2.137,3.952,3.952,0,0,1-.318,1.514,4.354,4.354,0,0,1-.839,1.217,3.363,3.363,0,0,1-1.215.8,3.54,3.54,0,0,1-1.474.3h0Zm6.795-2.553,5.726-.92-1.417,5.877h6.131l-1.1,4.63h-6.073l-1.619,6.975a9.061,9.061,0,0,0-.26,1.633,3.053,3.053,0,0,0,.173,1.306,1.708,1.708,0,0,0,.781.86,3.5,3.5,0,0,0,1.648.3,8.58,8.58,0,0,0,1.735-.178,10.856,10.856,0,0,0,1.678-.475l0.405,4.334a17.247,17.247,0,0,1-2.4.712,13.267,13.267,0,0,1-3.065.3,8.5,8.5,0,0,1-3.962-.772,4.414,4.414,0,0,1-2-2.137,6.6,6.6,0,0,1-.521-3.087,21.635,21.635,0,0,1,.521-3.68l3.614-15.672h0Zm10.238,16.978a14.181,14.181,0,0,1,.81-4.868,12.046,12.046,0,0,1,2.342-3.977,10.948,10.948,0,0,1,3.673-2.7,11.537,11.537,0,0,1,4.829-.98,12.915,12.915,0,0,1,2.979.327,11.5,11.5,0,0,1,2.4.861l-1.88,4.392c-0.491-.207-1.012-0.385-1.532-0.564a6.206,6.206,0,0,0-1.938-.237,5.378,5.378,0,0,0-4.338,1.929,7.874,7.874,0,0,0-1.619,5.194,5.341,5.341,0,0,0,.809,3.117,3.368,3.368,0,0,0,3.008,1.187,9.555,9.555,0,0,0,2.082-.237,11.384,11.384,0,0,0,1.764-.564l0.405,4.511a20.623,20.623,0,0,1-2.284.742,12.633,12.633,0,0,1-3.008.327,9.9,9.9,0,0,1-3.875-.683,7.2,7.2,0,0,1-2.632-1.84,7.275,7.275,0,0,1-1.5-2.7,9.953,9.953,0,0,1-.491-3.235h0Zm24.292,8.488a8.665,8.665,0,0,1-3.413-.623,6.192,6.192,0,0,1-2.371-1.721,7.308,7.308,0,0,1-1.417-2.612,10.966,10.966,0,0,1-.492-3.325,14.943,14.943,0,0,1,.723-4.57,13.116,13.116,0,0,1,2.14-4.1,11.711,11.711,0,0,1,3.442-3,9.283,9.283,0,0,1,4.656-1.158,8.616,8.616,0,0,1,3.383.624,6.3,6.3,0,0,1,2.4,1.721,7.293,7.293,0,0,1,1.417,2.612,10.959,10.959,0,0,1,.492,3.324,15.8,15.8,0,0,1-.694,4.571,12.98,12.98,0,0,1-2.082,4.1,11.116,11.116,0,0,1-3.413,2.968,9.206,9.206,0,0,1-4.771,1.187h0Zm2.747-16.235a3.389,3.389,0,0,0-2.14.712,6.722,6.722,0,0,0-1.562,1.811,9.668,9.668,0,0,0-.954,2.4,10.95,10.95,0,0,0-.318,2.493,6.392,6.392,0,0,0,.578,2.968,2.231,2.231,0,0,0,2.14,1.069,3.39,3.39,0,0,0,2.14-.713,6.685,6.685,0,0,0,1.562-1.81,10.189,10.189,0,0,0,1.272-4.9,6.015,6.015,0,0,0-.607-2.968,2.129,2.129,0,0,0-2.111-1.069h0Zm14.17,15.731h-5.465l4.627-19.975h5.523l-4.685,19.975h0Zm2.661-22.409a3.345,3.345,0,0,1-2.082-.713,2.552,2.552,0,0,1-.926-2.137,3.594,3.594,0,0,1,.318-1.484,4.354,4.354,0,0,1,.839-1.217,3.884,3.884,0,0,1,1.215-.831,3.517,3.517,0,0,1,1.446-.3,3.409,3.409,0,0,1,2.082.712,2.555,2.555,0,0,1,.925,2.137,3.841,3.841,0,0,1-.318,1.514,3.943,3.943,0,0,1-.839,1.217,3.367,3.367,0,0,1-1.214.8,3.326,3.326,0,0,1-1.446.3h0Zm5.957,3.354q0.608-.178,1.388-0.445a15.925,15.925,0,0,1,1.706-.446,18.616,18.616,0,0,1,2.111-.356,23.065,23.065,0,0,1,2.632-.148q4.338,0,5.986,2.582c1.1,1.721,1.3,4.066.579,7.064l-2.516,10.774h-5.524l2.429-10.566c0.145-.653.261-1.306,0.347-1.929a4.367,4.367,0,0,0-.028-1.633,1.788,1.788,0,0,0-.695-1.128,2.505,2.505,0,0,0-1.648-.445,10.588,10.588,0,0,0-2.169.237l-3.586,15.434h-5.523l4.511-19h0Z" transform="translate(-62 -105)"/>
  <circle id="椭圆_2_拷贝_4" data-name="椭圆 2 拷贝 4" class="cls-5" cx="164.359" cy="30.391" r="13.172"/>
  <path id="形状_1_拷贝_7-2" data-name="形状 1 拷贝 7" class="cls-6" d="M226.559,131.236l-0.81,3.294c0.9,0.238,3.7,1.187,4.136-.682h0C230.376,131.889,227.456,131.443,226.559,131.236Zm-1.214,4.927-0.868,3.621c1.1,0.267,4.425,1.4,4.945-.653C229.943,136.994,226.444,136.459,225.345,136.163Zm4.829-14.722a14.614,14.614,0,0,0-17.727,10.923,14.983,14.983,0,0,0,10.642,18.164,14.571,14.571,0,0,0,17.7-10.922h0A15.017,15.017,0,0,0,230.174,121.441Zm2.892,12.407a2.586,2.586,0,0,1-2.053,2.4,2.906,2.906,0,0,1,1.475,3.977c-0.868,2.523-2.921,2.76-5.669,2.226l-0.665,2.731-1.59-.416,0.665-2.7c-0.405-.119-0.839-0.208-1.273-0.326l-0.665,2.7-1.59-.386,0.665-2.731c-0.376-.089-0.752-0.208-1.157-0.3l-2.082-.534,0.81-1.87s1.185,0.327,1.157.3a0.545,0.545,0,0,0,.722-0.386l1.042-4.3,0.173,0.03c-0.058-.03-0.116-0.03-0.173-0.059l0.751-3.087a0.839,0.839,0,0,0-.751-0.95c0.028-.03-1.157-0.3-1.157-0.3l0.434-1.751,2.2,0.564h0c0.319,0.089.666,0.178,1.013,0.238l0.665-2.7,1.59,0.415-0.636,2.642c0.434,0.089.868,0.207,1.272,0.3l0.637-2.642,1.59,0.415-0.665,2.7C231.88,130.79,233.355,131.859,233.066,133.848Z" transform="translate(-62 -105)"/>
</svg>
